<?xml version="1.0" encoding="utf-8"?>
<!-- Generator: Adobe Illustrator 17.0.0, SVG Export Plug-In . SVG Version: 6.00 Build 0)  -->
<!DOCTYPE svg PUBLIC "-//W3C//DTD SVG 1.1//EN" "http://www.w3.org/Graphics/SVG/1.1/DTD/svg11.dtd">
<svg version="1.1" id="Layer_1" xmlns="http://www.w3.org/2000/svg" xmlns:xlink="http://www.w3.org/1999/xlink" x="0px" y="0px"
	 width="788.618px" height="80.488px" viewBox="0 0 788.618 80.488" enable-background="new 0 0 788.618 80.488"
	 xml:space="preserve">
<path fill="#010101" d="M162.654,23.776c0-8.803-7.137-15.938-15.94-15.938c-0.317,0-0.636,0.009-0.948,0.03l-0.002-0.03
	c-5.279-0.32-10.939,1.747-15.248,3.872c-2.388-3.61-8.12-6.154-14.81-6.154c-6.1,0-11.402,2.114-14.102,5.226h-6.647l-9.51,9.373
	h-2.263c-0.098-3.188-0.457-5.551-0.884-5.551c-0.427,0-0.782,2.363-0.88,5.551h-1.956c-0.096-3.188-0.454-5.551-0.881-5.551
	c-0.427,0-0.782,2.363-0.88,5.551h-1.956c-0.098-3.188-0.454-5.551-0.881-5.551c-0.427,0-0.782,2.363-0.88,5.551h-1.942
	c-0.065-5.562-0.44-9.829-0.895-9.829c-0.453,0-0.828,4.268-0.894,9.829h-1.929c-0.065-5.562-0.44-9.829-0.894-9.829
	c-0.455,0-0.832,4.268-0.896,9.829h-1.927c-0.065-5.562-0.44-9.829-0.894-9.829c-0.457,0-0.832,4.268-0.896,9.829h-1.927
	c-0.065-5.562-0.442-9.829-0.896-9.829c-0.454,0-0.829,4.268-0.895,9.829h-1.485l-0.698-2.174h-8.151l-1.312,1.541l-1.812,2.127
	l1.273,1.494l1.851,2.174h8.151l0.532-1.541h1.654c0.068,5.494,0.44,9.69,0.892,9.69c0.45,0,0.826-4.195,0.894-9.69h1.933
	c0.067,5.494,0.441,9.69,0.893,9.69c0.45,0,0.822-4.195,0.891-9.69h1.932c0.068,5.494,0.443,9.69,0.895,9.69
	c0.45,0,0.822-4.195,0.891-9.69h1.934c0.068,5.494,0.44,9.69,0.891,9.69c0.452,0,0.823-4.195,0.892-9.69h1.95
	c0.104,3.114,0.457,5.41,0.875,5.41c0.419,0,0.772-2.296,0.875-5.41h1.967c0.104,3.114,0.457,5.41,0.875,5.41
	c0.419,0,0.774-2.296,0.875-5.41h1.968c0.104,3.114,0.456,5.41,0.874,5.41c0.422,0,0.775-2.296,0.878-5.41h2.399
	c-0.175,0.571-0.267,1.16-0.267,1.764c0,4.924,6.05,8.914,13.517,8.914c1.902,0,3.711-0.258,5.353-0.728l5.312,5.312l2.988,0.408
	h3.804l1.087-3.125h5.026l0.951-1.087h0.255c1.057,2.456,4.029,10.346,1.919,16.981l1.086,1.087c0,0,3.293-6.353-0.663-18.067h0.256
	l4.573,3.396c0.635,2.718,2.763,3.941,2.763,3.941l5.705,21.871l-2.81,1.405l-1.536,3.078v1.901l9.372,3.668l9.238-7.336
	l0.815-6.113L147.8,40.532v-0.853C156.098,39.122,162.654,32.213,162.654,23.776z M149.889,11.097c0,0-6.453-1.323-20.373,4.432
	C129.516,15.529,140.091,8.453,149.889,11.097z M111.948,13.398l-1.755,1.73h-2.479c0.399-1.13,0.805-1.73,0.805-1.73h-4.586
	l-1.755,1.73l-0.346,0.339l-0.152-0.339c0,0-0.682-0.059-1.72,0.009c-0.026,0.002-0.054,0.005-0.084,0.008
	c0.101-0.43,0.247-0.848,0.435-1.258c1.899-4.157,8.072-7.203,15.395-7.203c6.172,0,11.528,2.166,14.195,5.336
	c-1.274,0.646-2.412,1.291-3.371,1.861c0.641-2.022,1.369-3.1,1.369-3.1h-6.725l-4.409,4.347h-1.035
	c0.399-1.13,0.804-1.73,0.804-1.73H111.948z M140.641,69.881l-3.403-3.338l2.553-0.916l2.355,3.861L140.641,69.881z M117.235,25.54
	l-2.31-2.26h31.925l2.309,2.26H117.235z"/>
<g>
	<path d="M197.035,8.211h4.96c8.06,0,13.551,2.816,16.473,8.446c0,0.949-1.092,1.882-3.277,2.8l-19.839-3.734
		c-4.959,1.038-7.439,2.282-7.439,3.734c2.096,3.083,12.015,8.728,29.758,16.936c4.398,5.008,6.598,9.69,6.598,14.046v1.912
		c0,11.883-6.613,17.825-19.839,17.825c-9.713,0-15.485-4.074-17.315-12.224v-0.935l1.639-1.866
		c8.502,5.631,14.288,8.445,17.359,8.445c5.55,0,8.857-4.696,9.919-14.091v-0.933c0-5.779-9.919-12.031-29.758-18.758
		c-4.399-3.763-6.598-7.216-6.598-10.357v-4.667C182.627,10.405,188.414,8.211,197.035,8.211z"/>
	<path d="M232.949,19.502h5.89c10.185,0,16.075,4.623,17.669,13.869v3.467c0,6.461-6.318,12.017-18.953,16.669v0.711l1.284,12.491
		c-0.561,2.312-1.211,3.467-1.949,3.467h-1.948l-2.657-2.756v-4.89l-4.561-31.916v-4.178
		C227.723,21.814,229.465,19.502,232.949,19.502z M232.949,27.814c2.273,12.979,4.457,19.47,6.554,19.47
		c7.676-6.519,11.602-10.461,11.779-11.824v-0.667c-4.192-6.49-8.34-9.735-12.443-9.735L232.949,27.814z"/>
	<path d="M269.039,13.679h5.845c1.564,0,4.827,7.483,9.787,22.448c3.897,8.742,10.731,17.869,20.503,27.381l1.948,5.823
		l-0.974,0.845H304.2c-4.251,0-10.436-5.26-18.555-15.78l-6.864-1.689h-5.845c-1.949,0.563-2.923,2.238-2.923,5.023v9.112
		c0,1.127-0.989,1.689-2.967,1.689c-4.547-1.659-6.82-4.43-6.82-8.313v-5.823C263.976,27.252,266.914,13.679,269.039,13.679z
		 M272.936,31.948l-1.949,12.491h7.794C276.833,36.112,274.885,31.948,272.936,31.948z"/>
	<path d="M334.446,13.501c3.454,0,6.48,2.623,9.078,7.868l-0.842,0.844l-8.236-0.844h-1.639
		c-9.329,1.274-13.994,5.912-13.994,13.913c0,13.099,7.13,22.7,21.389,28.804h0.841l5.757-0.889l1.638,2.622v0.89
		c0,1.511-2.199,2.667-6.598,3.467h-0.797c-13.964,0-24.666-10.757-32.105-32.271v-6.09c0-9.186,6.583-15.291,19.75-18.314H334.446z
		"/>
	<path d="M359.82,16.302h5.447c7.823,0,12.709,1.319,14.658,3.956c0,1.156-2.052,2.208-6.155,3.156l-13.152-0.755
		c-2.568,0-4.118,1.052-4.649,3.156c0.915,12.684,1.948,19.025,3.1,19.025l4.65,0.755l16.208-0.755l1.55,1.556
		c-1.505,3.705-3.823,5.556-6.952,5.556h-9.255c-2.598,0-4.148,1.052-4.65,3.156c1.063,4.386,2.096,6.772,3.1,7.157l9.255-0.8
		c10.834,1.274,16.252,2.859,16.252,4.756c0,1.571-2.584,2.89-7.75,3.956l-17.757-0.8l-5.403,0.8
		c-6.2-13.78-9.299-30.686-9.299-50.719C351.376,17.354,354.978,16.302,359.82,16.302z"/>
	<path d="M420.09,18.613c1.446,2.934,3.38,15.988,5.801,39.162l4.65,11.112l-1.151,1.289h-1.196c-3.868,0-5.801-2.4-5.801-7.201
		c-3.868-13.335-5.801-23.114-5.801-29.337h-1.151c-1.948,5.542-4.089,13.81-6.421,24.803h-1.727
		c-1.831,0-5.506-6.089-11.027-18.269h-1.195l-0.576,3.245l2.347,19.558v2.623l-1.195,1.333h-0.576
		c-3.868-2.637-5.801-10.046-5.801-22.225V34.26l0.576-11.068h0.576c3.956,0,8.414,6.742,13.374,20.226l1.771,1.289
		C409.313,27.311,414.156,18.613,420.09,18.613z"/>
	<path d="M442.364,13.679h5.845c1.564,0,4.827,7.483,9.787,22.448c3.897,8.742,10.732,17.869,20.503,27.381l1.949,5.823
		l-0.975,0.845h-1.949c-4.252,0-10.436-5.26-18.555-15.78l-6.864-1.689h-5.845c-1.949,0.563-2.923,2.238-2.923,5.023v9.112
		c0,1.127-0.989,1.689-2.967,1.689c-4.547-1.659-6.82-4.43-6.82-8.313v-5.823C437.301,27.252,440.239,13.679,442.364,13.679z
		 M446.261,31.948l-1.949,12.491h7.794C450.158,36.112,448.209,31.948,446.261,31.948z"/>
	<path d="M510.294,20.036c1.446,1.126,3.838,12.046,7.174,32.76c5.226,7.586,7.838,12.935,7.838,16.046l-1.284,1.334
		c-4.045,0-13.609-9.142-28.695-27.426l-7.174-6.001v4.667l1.948,18.047v4.712l-1.328,1.334h-1.284
		c-3.484,0-5.226-9.809-5.226-29.427V21.369h0.664c0.886,0.03,8.931,8.728,24.135,26.093l4.561,2
		c-3.041-11.764-4.561-21.351-4.561-28.76l0.62-0.667H510.294z"/>
	<path d="M568.306,8.211h4.959c8.06,0,13.551,2.816,16.474,8.446c0,0.949-1.093,1.882-3.276,2.8l-19.839-3.734
		c-4.96,1.038-7.44,2.282-7.44,3.734c2.097,3.083,12.016,8.728,29.759,16.936c4.398,5.008,6.599,9.69,6.599,14.046v1.912
		c0,11.883-6.614,17.825-19.84,17.825c-9.713,0-15.484-4.074-17.314-12.224v-0.935l1.639-1.866
		c8.502,5.631,14.288,8.445,17.359,8.445c5.55,0,8.856-4.696,9.919-14.091v-0.933c0-5.779-9.919-12.031-29.758-18.758
		c-4.399-3.763-6.599-7.216-6.599-10.357v-4.667C553.899,10.405,559.685,8.211,568.306,8.211z"/>
	<path d="M604.22,19.502h5.89c10.185,0,16.075,4.623,17.669,13.869v3.467c0,6.461-6.318,12.017-18.953,16.669v0.711l1.284,12.491
		c-0.562,2.312-1.211,3.467-1.948,3.467h-1.949l-2.656-2.756v-4.89l-4.562-31.916v-4.178
		C598.994,21.814,600.736,19.502,604.22,19.502z M604.22,27.814c2.272,12.979,4.457,19.47,6.554,19.47
		c7.676-6.519,11.603-10.461,11.779-11.824v-0.667c-4.192-6.49-8.341-9.735-12.443-9.735L604.22,27.814z"/>
	<path d="M635.617,17.013c4.989,0,8.443,12.624,10.362,37.873l3.1,15.291h-1.019c-8.296,0-12.443-12.624-12.443-37.872
		l-4.118-13.825L635.617,17.013z"/>
	<path d="M672.239,16.835h1.462c3.896,0,7.631,1.038,11.203,3.112v2.312l-10.45,1.556l-8.192-0.8
		c-4.99,0.652-7.484,1.689-7.484,3.112l3.765,14.668l13.417,2.312v2.312c0,1.571-4.473,3.127-13.417,4.667v0.755l5.225,17.025
		l-0.752,2.312h-1.506c-7.942-6.579-11.912-18.684-11.912-36.316l-2.259-13.913C651.337,18.762,658.304,17.724,672.239,16.835z"/>
	<path d="M707.665,16.835h1.462c3.896,0,7.631,1.038,11.203,3.112v2.312l-10.45,1.556l-8.192-0.8
		c-4.99,0.652-7.484,1.689-7.484,3.112l3.765,14.668l13.417,2.312v2.312c0,1.571-4.473,3.127-13.417,4.667v0.755l5.225,17.025
		l-0.752,2.312h-1.506c-7.942-6.579-11.912-18.684-11.912-36.316l-2.259-13.913C686.764,18.762,693.731,17.724,707.665,16.835z"/>
</g>
</svg>
